<?xml version="1.0" standalone="no"?><!DOCTYPE svg PUBLIC "-//W3C//DTD SVG 1.1//EN" "http://www.w3.org/Graphics/SVG/1.1/DTD/svg11.dtd"><svg t="1789050546525" class="icon" viewBox="0 0 1024 1024" version="1.1" xmlns="http://www.w3.org/2000/svg" p-id="1268" xmlns:xlink="http://www.w3.org/1999/xlink" width="256" height="256"><path d="M511.3 512.2m-447.3 0a447.3 447.3 0 1 0 894.6 0 447.3 447.3 0 1 0-894.6 0Z" fill="#BABABA" p-id="1269"></path><path d="M418.5 703.9h-66.3c-17.6 0-32.1-14.4-32.1-32.1V352.3c0-17.6 14.4-32.1 32.1-32.1h66.3c17.6 0 32.1 14.4 32.1 32.1v319.5c0 17.7-14.5 32.1-32.1 32.1zM675.7 704h-66.3c-17.6 0-32.1-14.4-32.1-32.1V352.4c0-17.6 14.4-32.1 32.1-32.1h66.3c17.6 0 32.1 14.4 32.1 32.1v319.5c0 17.6-14.5 32.1-32.1 32.1z" fill="#FFFFFF" p-id="1270"></path></svg>